# File created by Blade
# Date/Time:  Tue Jan 27 18:12:42 2015
# Frame Rate: 120.000 fps
#------------------------------------------------------
:FULLY-SPECIFIED
:DEGREES
2366
root -1.331615 31.803297 -6.547292 7.211059 11.630182 3.689088
Spine -7.433203 -10.800021 -3.756952
Head 13.335072 -35.440681 0.582159
LeftShoulder -14.363209 18.131317 2.688699
LeftArm 27.159605 40.132956 -66.694218
LeftForeArm -1.936490 -0.000000 16.736173
LeftHand -10.668652 -0.000000 -4.115250
LeftHandThumb1 -26.253704 0.000000 33.147579
RightShoulder -9.267222 6.877096 -16.733556
RightArm -12.842301 64.841565 43.904623
RightForeArm 34.049782 -0.000000 127.272060
RightHand -2.060909 0.000000 22.962185
RightHandThumb1 -24.326973 -0.000000 -32.862282
LeftUpLeg -3.325169 -3.506163 -1.075697
LeftLeg 1.281975 -0.000000 -0.000000
LeftFoot -17.251915 14.780056 -24.061769
LeftToeBase 8.627693 -0.000000 -0.000000
RightUpLeg 0.552818 -6.604121 -3.747224
RightLeg -2.717177 -0.000000 0.000000
RightFoot -16.844289 -15.755642 10.480931
RightToeBase 5.200172 -0.000000 -0.000000
2367
root -1.328620 31.803278 -6.549384 7.211687 11.612653 3.686947
Spine -7.431286 -10.799225 -3.793381
Head 13.451771 -36.427328 0.337661
LeftShoulder -14.375221 18.152710 2.688353
LeftArm 27.178397 40.140923 -66.648745
LeftForeArm -1.958814 -0.000000 16.748767
LeftHand -10.673449 -0.000000 -4.079854
LeftHandThumb1 -26.253704 0.000000 33.147579
RightShoulder -9.193034 6.986853 -16.793053
RightArm -13.084718 64.668259 43.739308
RightForeArm 33.309334 -0.000000 125.437592
RightHand -2.450610 -0.000000 22.366044
RightHandThumb1 -24.326973 -0.000000 -32.862282
LeftUpLeg -3.323192 -3.493116 -1.081849
LeftLeg 1.273752 -0.000000 -0.000000
LeftFoot -17.252065 14.778480 -24.067512
LeftToeBase 8.589236 -0.000000 -0.000000
RightUpLeg 0.544459 -6.601208 -3.754881
RightLeg -2.710076 -0.000000 0.000000
RightFoot -16.852511 -15.724680 10.494920
RightToeBase 5.263529 -0.000000 -0.000000
2368
root -1.325779 31.803371 -6.551850 7.217483 11.598131 3.686439
Spine -7.437611 -10.825702 -3.826378
Head 13.576480 -37.365207 0.086962
LeftShoulder -14.400456 18.180336 2.684250
LeftArm 27.205791 40.148869 -66.592152
LeftForeArm -1.977999 0.000000 16.757317
LeftHand -10.679913 -0.000000 -4.130784
LeftHandThumb1 -26.253704 0.000000 33.147579
RightShoulder -9.075316 7.118982 -16.868142
RightArm -13.408686 64.515881 43.508282
RightForeArm 32.593001 -0.000000 123.546548
RightHand -2.894871 -0.000000 21.663306
RightHandThumb1 -24.326973 -0.000000 -32.862282
LeftUpLeg -3.330041 -3.484203 -1.087662
LeftLeg 1.269297 -0.000000 -0.000000
LeftFoot -17.251613 14.791992 -24.046709
LeftToeBase 8.618011 -0.000000 -0.000000
RightUpLeg 0.532490 -6.585116 -3.761309
RightLeg -2.710290 -0.000000 0.000000
RightFoot -16.837536 -15.711520 10.531117
RightToeBase 5.199729 -0.000000 -0.000000
2369
root -1.324418 31.803443 -6.553884 7.214389 11.578424 3.675439
Spine -7.435952 -10.848211 -3.852622
Head 13.724193 -38.334733 -0.174791
LeftShoulder -14.426351 18.199115 2.682606
LeftArm 27.217708 40.165232 -66.539701
LeftForeArm -1.987104 -0.000000 16.778875
LeftHand -10.706369 -0.000000 -4.123071
LeftHandThumb1 -26.253704 0.000000 33.147579
RightShoulder -8.969380 7.129326 -16.940580
RightArm -13.443375 64.405382 43.572257
RightForeArm 31.903120 0.000000 121.656639
RightHand -3.545946 0.000000 20.887698
RightHandThumb1 -24.326973 -0.000000 -32.862282
LeftUpLeg -3.329969 -3.469822 -1.082765
LeftLeg 1.270572 -0.000000 -0.000000
LeftFoot -17.253666 14.813048 -23.995765
LeftToeBase 8.594268 -0.000000 -0.000000
RightUpLeg 0.524442 -6.580053 -3.753578
RightLeg -2.707242 -0.000000 0.000000
RightFoot -16.836149 -15.721985 10.500780
RightToeBase 5.256177 -0.000000 -0.000000
2370
root -1.321581 31.803364 -6.555971 7.212370 11.561663 3.673705
Spine -7.435151 -10.857592 -3.887248
Head 13.878535 -39.271332 -0.434641
LeftShoulder -14.430332 18.201356 2.688559
LeftArm 27.221492 40.206979 -66.484401
LeftForeArm -2.037756 -0.000000 16.788187
LeftHand -10.715201 -0.000000 -4.089731
LeftHandThumb1 -26.253704 0.000000 33.147579
RightShoulder -8.878057 7.192754 -17.022527
RightArm -13.553988 64.305471 43.575493
RightForeArm 30.895015 0.000000 119.712353
RightHand -3.717298 -0.000000 20.292623
RightHandThumb1 -24.326973 -0.000000 -32.862282
LeftUpLeg -3.330668 -3.457679 -1.088534
LeftLeg 1.271496 -0.000000 -0.000000
LeftFoot -17.254134 14.805248 -24.024180
LeftToeBase 8.589485 -0.000000 -0.000000
RightUpLeg 0.518035 -6.588934 -3.761708
RightLeg -2.702915 -0.000000 0.000000
RightFoot -16.831817 -15.685790 10.490084
RightToeBase 5.281916 -0.000000 -0.000000
2371
root -1.319178 31.803048 -6.558025 7.211160 11.540357 3.666802
Spine -7.434955 -10.872224 -3.924773
Head 14.040572 -40.176607 -0.659345
LeftShoulder -14.451792 18.230885 2.702311
LeftArm 27.253757 40.208820 -66.450924
LeftForeArm -2.007212 -0.000000 16.769261
LeftHand -10.711819 -0.000000 -4.101292
LeftHandThumb1 -26.253704 0.000000 33.147579
RightShoulder -8.827220 7.081131 -17.194082
RightArm -13.412869 64.112148 43.959219
RightForeArm 29.862742 -0.000000 117.702132
RightHand -4.041477 -0.000000 19.139536
RightHandThumb1 -24.326973 -0.000000 -32.862282
LeftUpLeg -3.325394 -3.463580 -1.087487
LeftLeg 1.258658 -0.000000 -0.000000
LeftFoot -17.280883 14.813783 -24.056581
LeftToeBase 8.669630 -0.000000 -0.000000
RightUpLeg 0.507769 -6.581122 -3.761193
RightLeg -2.694488 -0.000000 0.000000
RightFoot -16.834370 -15.665442 10.503113
RightToeBase 5.288420 -0.000000 -0.000000
2372
root -1.316928 31.803060 -6.560580 7.205519 11.517060 3.658196
Spine -7.428040 -10.871626 -3.958550
Head 14.208731 -41.091681 -0.899186
LeftShoulder -14.451633 18.228901 2.725943
LeftArm 27.251959 40.226264 -66.436602
LeftForeArm -1.997464 -0.000000 16.751159
LeftHand -10.728103 -0.000000 -4.096496
LeftHandThumb1 -26.253704 0.000000 33.147579
RightShoulder -8.737137 7.164929 -17.298206
RightArm -13.521230 63.962292 43.978650
RightForeArm 28.833854 0.000000 115.669220
RightHand -4.545280 -0.000000 18.139561
RightHandThumb1 -24.326973 -0.000000 -32.862282
LeftUpLeg -3.321892 -3.451189 -1.088316
LeftLeg 1.256139 -0.000000 -0.000000
LeftFoot -17.273948 14.845788 -24.021585
LeftToeBase 8.604279 -0.000000 -0.000000
RightUpLeg 0.504450 -6.573884 -3.761854
RightLeg -2.696906 -0.000000 0.000000
RightFoot -16.816910 -15.648967 10.501240
RightToeBase 5.259794 -0.000000 -0.000000
2373
root -1.314150 31.802828 -6.563352 7.196743 11.500504 3.645867
Spine -7.421338 -10.891583 -3.997994
Head 14.405514 -41.934530 -1.119498
LeftShoulder -14.471273 18.246713 2.761876
LeftArm 27.278299 40.231995 -66.428280
LeftForeArm -1.963267 -0.000000 16.715397
LeftHand -10.721592 -0.000000 -4.110386
LeftHandThumb1 -26.253704 0.000000 33.147579
RightShoulder -8.695413 7.661285 -17.469863
RightArm -14.094744 63.486776 43.564320
RightForeArm 27.567440 -0.000000 113.562382
RightHand -4.942549 -0.000000 17.500121
RightHandThumb1 -24.326973 -0.000000 -32.862282
LeftUpLeg -3.321619 -3.438590 -1.085291
LeftLeg 1.266280 -0.000000 -0.000000
LeftFoot -17.295609 14.849904 -23.998084
LeftToeBase 8.605717 -0.000000 -0.000000
RightUpLeg 0.499160 -6.575809 -3.756828
RightLeg -2.691166 -0.000000 0.000000
RightFoot -16.798988 -15.633448 10.495399
RightToeBase 5.215823 -0.000000 -0.000000
2374
root -1.312164 31.803638 -6.564550 7.189196 11.469529 3.643517
Spine -7.421148 -10.882543 -4.046701
Head 14.614809 -42.809599 -1.371893
LeftShoulder -14.473791 18.263069 2.796488
LeftArm 27.299730 40.239843 -66.408419
LeftForeArm -1.926959 -0.000000 16.680325
LeftHand -10.725689 -0.000000 -4.086143
LeftHandThumb1 -26.253704 0.000000 33.147579
RightShoulder -8.524295 7.458787 -17.524798
RightArm -13.966841 63.596857 43.787753
RightForeArm 26.165800 0.000000 111.474430
RightHand -5.203349 -0.000000 16.748515
RightHandThumb1 -24.326973 -0.000000 -32.862282
LeftUpLeg -3.301840 -3.450692 -1.088468
LeftLeg 1.242816 -0.000000 -0.000000
LeftFoot -17.297980 14.881476 -24.029775
LeftToeBase 8.628954 -0.000000 -0.000000
RightUpLeg 0.502698 -6.555045 -3.763800
RightLeg -2.694991 -0.000000 0.000000
RightFoot -16.792525 -15.614247 10.500806
RightToeBase 5.272384 -0.000000 -0.000000
2375
root -1.309607 31.803899 -6.567362 7.184304 11.443428 3.637451
Spine -7.398831 -10.918688 -4.075597
Head 14.720416 -43.570390 -1.540475
LeftShoulder -14.566543 18.249962 2.800569
LeftArm 27.348652 40.274205 -66.358892
LeftForeArm -1.904500 -0.000000 16.636215
LeftHand -10.701033 -0.000000 -4.140077
LeftHandThumb1 -26.253704 0.000000 33.147579
RightShoulder -8.361428 7.370761 -17.644458
RightArm -13.903445 63.614530 43.986442
RightForeArm 24.678999 -0.000000 109.377119
RightHand -5.728664 -0.000000 15.819801
RightHandThumb1 -24.326973 -0.000000 -32.862282
LeftUpLeg -3.298209 -3.439564 -1.090232
LeftLeg 1.239658 -0.000000 -0.000000
LeftFoot -17.317548 14.880792 -24.069415
LeftToeBase 8.690279 -0.000000 -0.000000
RightUpLeg 0.495299 -6.533646 -3.767802
RightLeg -2.689172 -0.000000 0.000000
RightFoot -16.783454 -15.608072 10.497398
RightToeBase 5.244106 -0.000000 -0.000000
2376
root -1.307516 31.803929 -6.570198 7.181763 11.414591 3.618166
Spine -7.390665 -10.970279 -4.091039
Head 14.863212 -44.312753 -1.735498
LeftShoulder -14.672043 18.243496 2.814498
LeftArm 27.391728 40.315894 -66.326741
LeftForeArm -1.882238 -0.000000 16.590176
LeftHand -10.702292 -0.000000 -4.125729
LeftHandThumb1 -26.253704 0.000000 33.147579
RightShoulder -8.207620 7.512885 -17.798195
RightArm -14.076687 63.419161 43.969608
RightForeArm 23.128345 -0.000000 107.213791
RightHand -6.249971 0.000000 14.762299
RightHandThumb1 -24.326973 -0.000000 -32.862282
LeftUpLeg -3.301788 -3.419637 -1.079705
LeftLeg 1.243760 -0.000000 -0.000000
LeftFoot -17.315162 14.897411 -24.018637
LeftToeBase 8.645341 -0.000000 -0.000000
RightUpLeg 0.480896 -6.526746 -3.755914
RightLeg -2.682736 -0.000000 0.000000
RightFoot -16.769335 -15.587634 10.486312
RightToeBase 5.251745 -0.000000 -0.000000
